<?xml version="1.0" encoding="iso-8859-1"?>
<!-- Generator: Adobe Illustrator 19.0.0, SVG Export Plug-In . SVG Version: 6.00 Build 0)  -->
<svg version="1.1" id="Capa_1" xmlns="http://www.w3.org/2000/svg" xmlns:xlink="http://www.w3.org/1999/xlink" x="0px" y="0px"
	 viewBox="0 0 512 512" opacity="0.2" style="enable-background:new 0 0 512 512;" xml:space="preserve">
<path style="fill:#303C42;" d="M501.333,256h-10.667v-10.667c0-20.613-8.404-39.298-21.96-52.824L449.966,63.604
	c4.918-0.952,8.701-5.073,8.701-10.271c0-3.764-2.061-6.911-5.001-8.81l3.876-7.753c1.646-3.302,1.479-7.229-0.458-10.375
	c-1.958-3.146-5.396-5.063-9.083-5.063h-64c-3.688,0-7.125,1.917-9.083,5.063c-1.938,3.146-2.104,7.073-0.458,10.375l3.876,7.753
	c-2.94,1.898-5.001,5.046-5.001,8.81c0,5.328,3.965,9.544,9.066,10.344l-18.43,128.275c-13.922,13.57-22.637,32.453-22.637,53.382
	V256h-10.667v-10.667c0-20.613-8.404-39.298-21.96-52.824L289.966,63.604c4.918-0.952,8.701-5.073,8.701-10.271
	c0-3.764-2.061-6.911-5.001-8.81l3.876-7.753c1.646-3.302,1.479-7.229-0.458-10.375c-1.958-3.146-5.396-5.063-9.083-5.063h-64
	c-3.688,0-7.125,1.917-9.083,5.063c-1.938,3.146-2.104,7.073-0.458,10.375l3.876,7.753c-2.94,1.898-5.001,5.046-5.001,8.81
	c0,5.328,3.965,9.544,9.066,10.344l-18.43,128.275c-13.922,13.57-22.637,32.453-22.637,53.382V256h-10.667v-10.667
	c0-20.613-8.404-39.298-21.96-52.824L129.966,63.604c4.918-0.952,8.701-5.073,8.701-10.271c0-3.764-2.061-6.911-5.001-8.81
	l3.876-7.753c1.646-3.302,1.479-7.229-0.458-10.375c-1.958-3.146-5.396-5.063-9.083-5.063H64c-3.688,0-7.125,1.917-9.083,5.063
	c-1.938,3.146-2.104,7.073-0.458,10.375l3.876,7.753c-2.94,1.898-5.001,5.046-5.001,8.81c0,5.328,3.965,9.544,9.066,10.344
	L43.97,191.952c-13.922,13.57-22.637,32.453-22.637,53.382V256H10.667C4.771,256,0,260.771,0,266.667V448
	c0,23.531,19.146,42.667,42.667,42.667h426.667C492.854,490.667,512,471.531,512,448V266.667C512,260.771,507.229,256,501.333,256z"
	/>
<g>
	<path style="fill:#2E7D32;" d="M403.915,64h24.538l16.352,112.473c-8.871-3.725-18.598-5.806-28.805-5.806
		c-9.992,0-19.5,2.046-28.219,5.624L403.915,64z"/>
	<path style="fill:#2E7D32;" d="M362.667,245.333C362.667,215.927,386.583,192,416,192c29.417,0,53.333,23.927,53.333,53.333V256
		H362.667V245.333z"/>
</g>
<path style="opacity:0.1;enable-background:new    ;" d="M444.805,176.473L428.453,64h-4.982l9.492,108.81
	C437.023,173.767,441.026,174.885,444.805,176.473z"/>
<path style="opacity:0.2;fill:#FFFFFF;enable-background:new    ;" d="M408.749,64h-4.833l-16.134,112.29
	c3.707-1.521,7.624-2.604,11.592-3.533L408.749,64z"/>
<path style="opacity:0.1;enable-background:new    ;" d="M416,192c17.65,0,32,23.927,32,53.333V256h21.333v-10.667
	C469.333,215.927,445.417,192,416,192z"/>
<path style="opacity:0.2;fill:#FFFFFF;enable-background:new    ;" d="M416,192c-29.417,0-53.333,23.927-53.333,53.333V256H384
	v-10.667C384,215.927,398.35,192,416,192z"/>
<g>
	<path style="fill:#2E7D32;" d="M243.915,64h24.538l16.352,112.473c-8.871-3.725-18.598-5.806-28.805-5.806
		c-9.992,0-19.5,2.046-28.219,5.624L243.915,64z"/>
	<path style="fill:#2E7D32;" d="M202.667,245.333C202.667,215.927,226.583,192,256,192c29.417,0,53.333,23.927,53.333,53.333V256
		H202.667V245.333z"/>
	<path style="fill:#2E7D32;" d="M83.915,64h24.538l16.352,112.473c-8.871-3.725-18.598-5.806-28.805-5.806
		c-9.992,0-19.5,2.046-28.219,5.624L83.915,64z"/>
	<path style="fill:#2E7D32;" d="M42.667,245.333C42.667,215.927,66.583,192,96,192s53.333,23.927,53.333,53.333V256H42.667V245.333z
		"/>
</g>
<path style="opacity:0.1;enable-background:new    ;" d="M403.915,64h24.538l16.352,112.473c-8.871-3.725-18.598-5.806-28.805-5.806
	c-9.992,0-19.5,2.046-28.219,5.624L403.915,64z"/>
<path style="opacity:0.1;enable-background:new    ;" d="M362.667,245.333C362.667,215.927,386.583,192,416,192
	c29.417,0,53.333,23.927,53.333,53.333V256H362.667V245.333z"/>
<path style="opacity:0.1;enable-background:new    ;" d="M243.915,64h24.538l16.352,112.473c-8.871-3.725-18.598-5.806-28.805-5.806
	c-9.992,0-19.5,2.046-28.219,5.624L243.915,64z"/>
<path style="opacity:0.1;enable-background:new    ;" d="M202.667,245.333C202.667,215.927,226.583,192,256,192
	c29.417,0,53.333,23.927,53.333,53.333V256H202.667V245.333z"/>
<path style="opacity:0.1;enable-background:new    ;" d="M83.915,64h24.538l16.352,112.473c-8.871-3.725-18.598-5.806-28.805-5.806
	c-9.992,0-19.5,2.046-28.219,5.624L83.915,64z"/>
<path style="opacity:0.1;enable-background:new    ;" d="M42.667,245.333C42.667,215.927,66.583,192,96,192
	s53.333,23.927,53.333,53.333V256H42.667V245.333z"/>
<path style="fill:#C38355;" d="M490.667,448c0,11.76-9.563,21.333-21.333,21.333H42.667c-11.771,0-21.333-9.573-21.333-21.333
	V277.333h469.333V448z"/>
<path style="opacity:0.1;enable-background:new    ;" d="M469.333,277.333v133.773c0,20.375-16.518,36.893-36.893,36.893H21.333
	c0,11.76,9.563,21.333,21.333,21.333h426.667c11.771,0,21.333-9.573,21.333-21.333V277.333H469.333z"/>
<path style="opacity:0.1;enable-background:new    ;" d="M284.805,176.473L268.453,64h-4.982l9.492,108.81
	C277.023,173.767,281.026,174.885,284.805,176.473z"/>
<path style="opacity:0.2;fill:#FFFFFF;enable-background:new    ;" d="M248.749,64h-4.833l-16.134,112.29
	c3.707-1.521,7.624-2.604,11.592-3.533L248.749,64z"/>
<path style="opacity:0.1;enable-background:new    ;" d="M256,192c17.65,0,32,23.927,32,53.333V256h21.333v-10.667
	C309.333,215.927,285.417,192,256,192z"/>
<path style="opacity:0.2;fill:#FFFFFF;enable-background:new    ;" d="M256,192c-29.417,0-53.333,23.927-53.333,53.333V256H224
	v-10.667C224,215.927,238.35,192,256,192z"/>
<path style="opacity:0.1;enable-background:new    ;" d="M124.805,176.473L108.453,64h-4.982l9.492,108.81
	C117.023,173.767,121.026,174.885,124.805,176.473z"/>
<path style="opacity:0.2;fill:#FFFFFF;enable-background:new    ;" d="M88.749,64h-4.833L67.781,176.29
	c3.707-1.521,7.624-2.604,11.592-3.533L88.749,64z"/>
<path style="opacity:0.1;enable-background:new    ;" d="M96,192c17.65,0,32,23.927,32,53.333V256h21.333v-10.667
	C149.333,215.927,125.417,192,96,192z"/>
<path style="opacity:0.2;fill:#FFFFFF;enable-background:new    ;" d="M96,192c-29.417,0-53.333,23.927-53.333,53.333V256H64
	v-10.667C64,215.927,78.35,192,96,192z"/>
<path style="fill:#303C42;" d="M213.333,362.667h85.333c17.646,0,32-14.354,32-32c0-17.646-14.354-32-32-32h-85.333
	c-17.646,0-32,14.354-32,32C181.333,348.313,195.688,362.667,213.333,362.667z"/>
<path style="fill:#2E7D32;" d="M213.333,320h85.333c5.875,0,10.667,4.781,10.667,10.667c0,5.885-4.792,10.667-10.667,10.667h-85.333
	c-5.875,0-10.667-4.781-10.667-10.667C202.667,324.781,207.458,320,213.333,320z"/>
<path style="opacity:0.3;enable-background:new    ;" d="M213.333,320h85.333c5.875,0,10.667,4.781,10.667,10.667
	c0,5.885-4.792,10.667-10.667,10.667h-85.333c-5.875,0-10.667-4.781-10.667-10.667C202.667,324.781,207.458,320,213.333,320z"/>
<linearGradient id="SVGID_1_" gradientUnits="userSpaceOnUse" x1="-46.6898" y1="639.7631" x2="-21.3485" y2="627.9464" gradientTransform="matrix(21.3333 0 0 -21.3333 996.3334 13791.667)">
	<stop  offset="0" style="stop-color:#FFFFFF;stop-opacity:0.2"/>
	<stop  offset="1" style="stop-color:#FFFFFF;stop-opacity:0"/>
</linearGradient>
<path style="fill:url(#SVGID_1_);" d="M501.333,256h-10.667v-10.667c0-20.613-8.404-39.298-21.96-52.824L449.966,63.604
	c4.918-0.952,8.701-5.073,8.701-10.271c0-3.764-2.061-6.911-5.001-8.81l3.876-7.753c1.646-3.302,1.479-7.229-0.458-10.375
	c-1.958-3.146-5.396-5.063-9.083-5.063h-64c-3.688,0-7.125,1.917-9.083,5.063c-1.938,3.146-2.104,7.073-0.458,10.375l3.876,7.753
	c-2.94,1.898-5.001,5.046-5.001,8.81c0,5.328,3.965,9.544,9.066,10.344l-18.43,128.275c-13.922,13.57-22.637,32.453-22.637,53.382
	V256h-10.667v-10.667c0-20.613-8.404-39.298-21.96-52.824L289.966,63.604c4.918-0.952,8.701-5.073,8.701-10.271
	c0-3.764-2.061-6.911-5.001-8.81l3.876-7.753c1.646-3.302,1.479-7.229-0.458-10.375c-1.958-3.146-5.396-5.063-9.083-5.063h-64
	c-3.688,0-7.125,1.917-9.083,5.063c-1.938,3.146-2.104,7.073-0.458,10.375l3.876,7.753c-2.94,1.898-5.001,5.046-5.001,8.81
	c0,5.328,3.965,9.544,9.066,10.344l-18.43,128.275c-13.922,13.57-22.637,32.453-22.637,53.382V256h-10.667v-10.667
	c0-20.613-8.404-39.298-21.96-52.824L129.966,63.604c4.918-0.952,8.701-5.073,8.701-10.271c0-3.764-2.061-6.911-5.001-8.81
	l3.876-7.753c1.646-3.302,1.479-7.229-0.458-10.375c-1.958-3.146-5.396-5.063-9.083-5.063H64c-3.688,0-7.125,1.917-9.083,5.063
	c-1.938,3.146-2.104,7.073-0.458,10.375l3.876,7.753c-2.94,1.898-5.001,5.046-5.001,8.81c0,5.328,3.965,9.544,9.066,10.344
	L43.97,191.952c-13.922,13.57-22.637,32.453-22.637,53.382V256H10.667C4.771,256,0,260.771,0,266.667V448
	c0,23.531,19.146,42.667,42.667,42.667h426.667C492.854,490.667,512,471.531,512,448V266.667C512,260.771,507.229,256,501.333,256z"
	/>
<g>
</g>
<g>
</g>
<g>
</g>
<g>
</g>
<g>
</g>
<g>
</g>
<g>
</g>
<g>
</g>
<g>
</g>
<g>
</g>
<g>
</g>
<g>
</g>
<g>
</g>
<g>
</g>
<g>
</g>
</svg>
