<?xml version="1.0" encoding="iso-8859-1"?>
<!-- Generator: Adobe Illustrator 19.0.0, SVG Export Plug-In . SVG Version: 6.00 Build 0)  -->
<svg version="1.1" id="Capa_1" xmlns="http://www.w3.org/2000/svg" xmlns:xlink="http://www.w3.org/1999/xlink" x="0px" y="0px"
	 viewBox="0 0 512 512" opacity="0.1" style="enable-background:new 0 0 512 512;" xml:space="preserve">
<path style="fill:#303C42;" d="M380.875,88.458c-4.167-4.167-10.917-4.167-15.083,0l-46.875,46.875
	c-23.667,23.667-53.521,39.646-86.333,46.208c-36.958,7.396-70.583,25.385-97.25,52.042L18.208,350.708
	C6.458,362.438,0,378.052,0,394.667c0,16.615,6.458,32.229,18.208,43.958l55.167,55.167C85.125,505.531,100.75,512,117.333,512
	s32.208-6.469,43.958-18.208l117.125-117.125c26.646-26.635,44.646-60.26,52.042-97.24c6.563-32.833,22.542-62.698,46.208-86.344
	l46.875-46.875c4.167-4.167,4.167-10.917,0-15.083L380.875,88.458z"/>
<rect x="88.984" y="293.482" transform="matrix(-0.7071 0.7071 -0.7071 -0.7071 500.6848 539.2551)" style="fill:#DFE1DF;" width="99.35" height="159.681"/>
<g>
	<path style="fill:#7D716D;" d="M88.458,478.708l-55.167-55.167c-7.708-7.708-11.958-17.958-11.958-28.875
		c0-10.296,3.897-19.919,10.793-27.457l112.651,112.651C129.147,493.986,103.477,493.686,88.458,478.708z"/>
	<path style="fill:#7D716D;" d="M263.333,361.583l-18,18L132.417,266.667l18-18c14.307-14.307,31.068-25.406,49.185-33.712
		c-11.563,47.408-9.958,77.814,4.836,92.608c8.292,8.302,21.521,12.458,39.896,12.458c14.372,0,31.918-2.563,52.719-7.63
		C288.746,330.517,277.645,347.279,263.333,361.583z"/>
</g>
<path style="opacity:0.1;enable-background:new    ;" d="M88.458,478.708l-55.167-55.167c-7.708-7.708-11.958-17.958-11.958-28.875
	c0-10.296,3.897-19.919,10.793-27.457l112.651,112.651C129.147,493.986,103.477,493.686,88.458,478.708z"/>
<path style="opacity:0.1;enable-background:new    ;" d="M263.333,361.583l-18,18L132.417,266.667l18-18
	c14.307-14.307,31.068-25.406,49.185-33.712c-11.563,47.408-9.958,77.814,4.836,92.608c8.292,8.302,21.521,12.458,39.896,12.458
	c14.372,0,31.918-2.563,52.719-7.63C288.746,330.517,277.645,347.279,263.333,361.583z"/>
<path style="fill:#FFCA28;" d="M361.583,178c-26.646,26.635-44.646,60.26-52.042,97.24c-0.868,4.346-2.332,8.482-3.526,12.716
	c-65.746,18.305-82.816,8.193-86.495,4.523c-3.678-3.668-13.798-20.755,4.507-86.491c4.237-1.197,8.375-2.66,12.723-3.53
	c36.958-7.396,70.583-25.385,97.25-52.042l39.333-39.333l27.583,27.583L361.583,178z"/>
<g>
	<polygon style="opacity:0.2;fill:#FFFFFF;enable-background:new    ;" points="127.556,291.971 117.333,281.75 47.083,352
		160,464.917 160.001,464.915 57.306,362.221 	"/>
	<path style="opacity:0.2;fill:#FFFFFF;enable-background:new    ;" d="M31.556,404.888c0-10.296,3.897-19.918,10.793-27.456
		L32.126,367.21c-6.896,7.538-10.793,17.161-10.793,27.457c0,10.917,4.25,21.167,11.958,28.875l55.167,55.167
		c0.003,0.003,0.004,0.003,0.004,0.003l-44.948-44.948C35.806,426.055,31.556,415.805,31.556,404.888z"/>
	<path style="opacity:0.2;fill:#FFFFFF;enable-background:new    ;" d="M160.639,258.888c10.423-10.423,22.452-18.604,35.055-25.781
		c1.078-5.764,2.353-11.776,3.908-18.152c-18.117,8.306-34.878,19.405-49.185,33.712l-18,18l112.917,112.917l0.001-0.001
		L142.639,276.888L160.639,258.888z"/>
	<path style="opacity:0.2;fill:#FFFFFF;enable-background:new    ;" d="M234.25,216.21c4.237-1.197,8.375-2.66,12.723-3.53
		c36.958-7.396,70.583-25.385,97.25-52.042l39.333-39.333l-10.223-10.221L334,150.417c-26.667,26.656-60.292,44.646-97.25,52.042
		c-4.348,0.87-8.486,2.333-12.723,3.53c-18.305,65.736-8.185,82.823-4.507,86.491c0.98,0.978,3.039,2.392,6.587,3.625
		C222.708,286.327,220.827,264.413,234.25,216.21z"/>
</g>
<path style="fill:#303C42;" d="M437.5,97.938c5.604,5.604,13.188,8.729,21.063,8.729c0.604,0,1.229-0.021,1.833-0.063
	c8.521-0.521,16.417-4.698,21.667-11.438l23.667-30.417c9.188-11.823,8.146-28.729-2.458-39.344L486.583,8.729
	C476-1.854,459.063-2.969,447.25,6.281l-30.438,23.646c-6.729,5.26-10.896,13.156-11.417,21.688
	c-0.521,8.521,2.625,16.865,8.667,22.885L437.5,97.938z"/>
<path style="fill:#FFCA28;" d="M429.917,46.76l30.438-23.646c1.521-1.198,3.354-1.781,5.167-1.781c2.167,0,4.333,0.844,5.979,2.479
	l16.688,16.677c3,3.01,3.313,7.813,0.708,11.167l-23.667,30.406c-2.042,2.625-4.729,3.167-6.146,3.25
	c-1.5,0.115-4.167-0.104-6.5-2.458l-23.438-23.448c-2.354-2.333-2.542-5.063-2.458-6.479C426.771,51.5,427.313,48.802,429.917,46.76
	z"/>
<path style="opacity:0.2;fill:#FFFFFF;enable-background:new    ;" d="M429.876,60.137c0.017-0.013,0.017-0.03,0.034-0.043
	l30.438-23.646c1.521-1.198,3.354-1.781,5.167-1.781c2.167,0,4.333,0.844,5.979,2.479l16.141,16.132l1.262-1.621
	c2.604-3.354,2.292-8.156-0.708-11.167L471.5,23.813c-1.646-1.635-3.813-2.479-5.979-2.479c-1.813,0-3.646,0.583-5.167,1.781
	L429.917,46.76c-2.604,2.042-3.146,4.74-3.229,6.167c-0.083,1.417,0.104,4.146,2.458,6.479L429.876,60.137z"/>
<g>
	<circle style="fill:#303C42;" cx="256" cy="256" r="21.333"/>
	<path style="fill:#303C42;" d="M458.667,128c-5.896,0-10.667,4.771-10.667,10.667s4.771,10.667,10.667,10.667
		c17.646,0,32,14.354,32,32c0,5.896,4.771,10.667,10.667,10.667S512,187.229,512,181.333C512,151.927,488.083,128,458.667,128z"/>
	<path style="fill:#303C42;" d="M330.667,21.333c17.646,0,32,14.354,32,32c0,5.896,4.771,10.667,10.667,10.667
		S384,59.229,384,53.333C384,23.927,360.083,0,330.667,0C324.771,0,320,4.771,320,10.667S324.771,21.333,330.667,21.333z"/>
	<path style="fill:#303C42;" d="M442.104,150.458c-5.208-2.604-11.438-0.5-14.167,4.667c-2.688,5.167-0.646,11.583,4.479,14.344
		c0.646,0.344,15.583,8.677,15.583,33.198c0,5.896,4.771,10.667,10.667,10.667c5.896,0,10.667-4.771,10.667-10.667
		C469.333,164.51,443.208,151.01,442.104,150.458z"/>
	<path style="fill:#303C42;" d="M309.333,64c24.333,0,32.729,14.719,33.188,15.563c1.896,3.656,5.625,5.771,9.479,5.771
		c1.604,0,3.229-0.365,4.771-1.125c5.271-2.635,7.396-9.042,4.771-14.313c-0.563-1.115-14.063-27.229-52.208-27.229
		c-5.896,0-10.667,4.771-10.667,10.667S303.438,64,309.333,64z"/>
</g>
<linearGradient id="SVGID_1_" gradientUnits="userSpaceOnUse" x1="-42.0535" y1="638.6067" x2="-25.8779" y2="631.0644" gradientTransform="matrix(21.3333 0 0 -21.3333 996.3334 13791.667)">
	<stop  offset="0" style="stop-color:#FFFFFF;stop-opacity:0.2"/>
	<stop  offset="1" style="stop-color:#FFFFFF;stop-opacity:0"/>
</linearGradient>
<path style="fill:url(#SVGID_1_);" d="M380.875,88.458c-4.167-4.167-10.917-4.167-15.083,0l-46.875,46.875
	c-23.667,23.667-53.521,39.646-86.333,46.208c-36.958,7.396-70.583,25.385-97.25,52.042L18.208,350.708
	C6.458,362.438,0,378.052,0,394.667c0,16.615,6.458,32.229,18.208,43.958l55.167,55.167C85.125,505.531,100.75,512,117.333,512
	s32.208-6.469,43.958-18.208l117.125-117.125c26.646-26.635,44.646-60.26,52.042-97.24c6.563-32.833,22.542-62.698,46.208-86.344
	l46.875-46.875c4.167-4.167,4.167-10.917,0-15.083L380.875,88.458z M437.5,97.938c5.604,5.604,13.188,8.729,21.063,8.729
	c0.604,0,1.229-0.021,1.833-0.063c8.521-0.521,16.417-4.698,21.667-11.438l23.667-30.417c9.188-11.823,8.146-28.729-2.458-39.344
	L486.583,8.729C476-1.854,459.063-2.969,447.25,6.281l-30.438,23.646c-6.729,5.26-10.896,13.156-11.417,21.688
	c-0.521,8.521,2.625,16.865,8.667,22.885L437.5,97.938z M458.667,128c-5.896,0-10.667,4.771-10.667,10.667
	s4.771,10.667,10.667,10.667c17.646,0,32,14.354,32,32c0,5.896,4.771,10.667,10.667,10.667S512,187.229,512,181.333
	C512,151.927,488.083,128,458.667,128z M330.667,21.333c17.646,0,32,14.354,32,32c0,5.896,4.771,10.667,10.667,10.667
	S384,59.229,384,53.333C384,23.927,360.083,0,330.667,0C324.771,0,320,4.771,320,10.667S324.771,21.333,330.667,21.333z
	 M442.104,150.458c-5.208-2.604-11.438-0.5-14.167,4.667c-2.688,5.167-0.646,11.583,4.479,14.344
	c0.646,0.344,15.583,8.677,15.583,33.198c0,5.896,4.771,10.667,10.667,10.667c5.896,0,10.667-4.771,10.667-10.667
	C469.333,164.51,443.208,151.01,442.104,150.458z M309.333,64c24.333,0,32.729,14.719,33.188,15.563
	c1.896,3.656,5.625,5.771,9.479,5.771c1.604,0,3.229-0.365,4.771-1.125c5.271-2.635,7.396-9.042,4.771-14.313
	c-0.563-1.115-14.063-27.229-52.208-27.229c-5.896,0-10.667,4.771-10.667,10.667S303.438,64,309.333,64z"/>
<g>
</g>
<g>
</g>
<g>
</g>
<g>
</g>
<g>
</g>
<g>
</g>
<g>
</g>
<g>
</g>
<g>
</g>
<g>
</g>
<g>
</g>
<g>
</g>
<g>
</g>
<g>
</g>
<g>
</g>
</svg>
