<?xml version="1.0" encoding="iso-8859-1"?>
<!-- Generator: Adobe Illustrator 19.0.0, SVG Export Plug-In . SVG Version: 6.00 Build 0)  -->
<svg version="1.1" id="Capa_1" xmlns="http://www.w3.org/2000/svg" xmlns:xlink="http://www.w3.org/1999/xlink" x="0px" y="0px"
	 viewBox="0 0 512 512" opacity="0.1" style="enable-background:new 0 0 512 512;" xml:space="preserve">
<path style="fill:#303C42;" d="M512,266.667c0-13.888-8.944-25.617-21.333-30.035v-1.965c0-67.766-44.888-125.635-109.673-143.458
	c-3.31-8.458-9.199-15.578-16.75-20.417c4.211-15.43,17.365-49.458,51.757-49.458c5.896,0,10.667-4.771,10.667-10.667
	S421.896,0,416,0c-43.267,0-64.706,37.555-72.167,64.253c-0.844-0.049-1.645-0.253-2.5-0.253c-17.997,0-33.353,11.241-39.609,27.044
	c-41.781,11.475-76.068,40.087-94.747,78.846c-7.503-12.273-20.906-20.557-36.31-20.557c-0.855,0-1.656,0.203-2.5,0.253
	c-7.461-26.698-28.9-64.253-72.167-64.253c-5.896,0-10.667,4.771-10.667,10.667c0,5.896,4.771,10.667,10.667,10.667
	c34.392,0,47.546,34.029,51.757,49.458c-7.551,4.839-13.44,11.958-16.75,20.417C66.221,194.365,21.333,252.234,21.333,320v1.965
	C8.944,326.383,0,338.112,0,352c0,14.393,9.611,26.453,22.708,30.462l15.646,93.892C41.813,497.01,59.521,512,80.438,512h180.458
	c20.917,0,38.625-14.99,42.083-35.656l8.279-49.677h120.305c20.958,0,38.646-15,42.083-35.656l15.646-93.882
	C502.389,293.12,512,281.06,512,266.667z"/>
<circle style="fill:#D32F2F;" cx="341.333" cy="106.667" r="21.333"/>
<path style="fill:#B24399;" d="M299.402,113.945c3.478,20.06,20.901,35.388,41.931,35.388c20.922,0,38.296-15.168,41.898-35.074
	c51.197,17.673,86.102,65.146,86.102,120.408H292.836c-16.542-23.685-39.678-42.456-67.624-53.344
	C239.811,149.539,266.436,125.319,299.402,113.945z"/>
<circle style="fill:#D32F2F;" cx="170.667" cy="192" r="21.333"/>
<path style="opacity:0.2;fill:#FFFFFF;enable-background:new    ;" d="M160,202.667c0-11.76,9.563-21.333,21.333-21.333
	c3.12,0,6.034,0.747,8.706,1.954c-3.349-7.404-10.725-12.621-19.372-12.621c-11.771,0-21.333,9.573-21.333,21.333
	c0,8.645,5.216,16.031,12.628,19.379C160.751,208.704,160,205.788,160,202.667z"/>
<path style="fill:#ED1944;" d="M128.768,199.592c3.603,19.906,20.977,35.074,41.898,35.074s38.296-15.168,41.898-35.074
	c51.197,17.673,86.102,65.146,86.102,120.408h-256C42.667,264.738,77.572,217.266,128.768,199.592z"/>
<path style="opacity:0.1;enable-background:new    ;" d="M212.565,199.592c-0.326,1.802-0.887,3.514-1.431,5.23
	c33.328,20.572,55.533,64.441,55.533,115.177h32C298.667,264.738,263.762,217.266,212.565,199.592z"/>
<path style="opacity:0.2;fill:#FFFFFF;enable-background:new    ;" d="M130.199,204.823c-0.544-1.716-1.105-3.428-1.431-5.23
	C77.572,217.266,42.667,264.738,42.667,320h32C74.667,269.266,96.871,225.395,130.199,204.823z"/>
<path style="fill:#FAFAFA;" d="M32,341.333h277.333c5.875,0,10.667,4.781,10.667,10.667c0,5.885-4.792,10.667-10.667,10.667H32
	c-5.875,0-10.667-4.781-10.667-10.667C21.333,346.115,26.125,341.333,32,341.333z"/>
<path style="opacity:0.1;enable-background:new    ;" d="M309.333,341.333c0,5.885-4.792,10.667-10.667,10.667H21.333
	c0,5.885,4.792,10.667,10.667,10.667h277.333c5.875,0,10.667-4.781,10.667-10.667C320,346.115,315.208,341.333,309.333,341.333z"/>
<path style="fill:#FDCA8C;" d="M281.938,472.833c-1.729,10.333-10.583,17.833-21.042,17.833H80.438
	c-10.458,0-19.313-7.5-21.042-17.823L44.59,384h252.154L281.938,472.833z"/>
<path style="opacity:0.2;fill:#FFFFFF;enable-background:new    ;" d="M85.94,472.844L74.667,384H44.59l14.806,88.844
	c1.729,10.323,10.583,17.823,21.042,17.823h21.525C93.999,490.667,87.258,483.167,85.94,472.844z"/>
<path style="opacity:0.1;enable-background:new    ;" d="M266.667,384l-11.273,88.833c-1.318,10.333-8.059,17.833-16.022,17.833
	h21.525c10.458,0,19.313-7.5,21.042-17.833L296.743,384H266.667z"/>
<path style="fill:#FDCA8C;" d="M452.604,387.51c-1.708,10.333-10.563,17.823-21.042,17.823h-116.75l3.813-22.871
	c13.098-4.009,22.708-16.069,22.708-30.462c0-13.888-8.944-25.617-21.333-30.035V320c0-7.262-0.814-14.329-1.81-21.333h149.227
	L452.604,387.51z"/>
<path style="fill:#FAFAFA;" d="M480,277.333H313.409c-2.186-7.38-4.943-14.465-8.197-21.333H480c5.875,0,10.667,4.781,10.667,10.667
	C490.667,272.552,485.875,277.333,480,277.333z"/>
<circle style="fill:#D32F2F;" cx="341.333" cy="106.667" r="21.333"/>
<path style="opacity:0.2;fill:#FFFFFF;enable-background:new    ;" d="M330.667,117.333C330.667,105.573,340.229,96,352,96
	c3.12,0,6.034,0.747,8.706,1.954c-3.349-7.404-10.725-12.621-19.372-12.621c-11.771,0-21.333,9.573-21.333,21.333
	c0,8.645,5.216,16.031,12.628,19.379C331.418,123.371,330.667,120.454,330.667,117.333z"/>
<path style="opacity:0.1;enable-background:new    ;" d="M383.232,114.259c-0.326,1.802-0.887,3.514-1.431,5.23
	c33.328,20.572,55.533,64.441,55.533,115.177h32C469.333,179.405,434.428,131.932,383.232,114.259z"/>
<path style="opacity:0.2;fill:#FFFFFF;enable-background:new    ;" d="M300.872,119.47c-0.572-1.809-1.141-3.621-1.47-5.525
	c-32.966,11.374-59.591,35.594-74.19,67.378c8.978,3.497,17.251,8.069,25.177,13.096c8.293-32.969,26.408-60.073,50.477-74.93
	L300.872,119.47z"/>
<path style="opacity:0.1;enable-background:new    ;" d="M469.333,266.667H309.311c1.368,3.552,3.005,6.977,4.098,10.667H480
	c5.875,0,10.667-4.781,10.667-10.667c0-5.885-4.792-10.667-10.667-10.667C480,261.885,475.208,266.667,469.333,266.667z"/>
<path style="opacity:0.1;enable-background:new    ;" d="M437.333,298.667L426.06,387.5c-1.318,10.333-8.059,17.833-16.022,17.833
	h21.525c10.458,0,19.313-7.5,21.042-17.833l14.806-88.833H437.333z"/>
<g>
	<path style="fill:#FFFFFF;" d="M277.333,181.333c2.729,0,5.458-1.042,7.542-3.125l10.667-10.667c4.167-4.167,4.167-10.917,0-15.083
		c-4.167-4.167-10.917-4.167-15.083,0l-10.667,10.667c-4.167,4.167-4.167,10.917,0,15.083
		C271.875,180.292,274.604,181.333,277.333,181.333z"/>
	<path style="fill:#FFFFFF;" d="M333.792,210.208c2.083,2.083,4.813,3.125,7.542,3.125s5.458-1.042,7.542-3.125
		c4.167-4.167,4.167-10.917,0-15.083l-10.667-10.667c-4.167-4.167-10.917-4.167-15.083,0c-4.167,4.167-4.167,10.917,0,15.083
		L333.792,210.208z"/>
	<path style="fill:#FFFFFF;" d="M384,181.333c2.729,0,5.458-1.042,7.542-3.125l10.667-10.667c4.167-4.167,4.167-10.917,0-15.083
		c-4.167-4.167-10.917-4.167-15.083,0l-10.667,10.667c-4.167,4.167-4.167,10.917,0,15.083
		C378.542,180.292,381.271,181.333,384,181.333z"/>
	<path style="fill:#FFFFFF;" d="M109.792,237.792l-10.667,10.667c-4.167,4.167-4.167,10.917,0,15.083
		c2.083,2.083,4.813,3.125,7.542,3.125c2.729,0,5.458-1.042,7.542-3.125l10.667-10.667c4.167-4.167,4.167-10.917,0-15.083
		C120.708,233.625,113.958,233.625,109.792,237.792z"/>
	<path style="fill:#FFFFFF;" d="M167.542,269.792c-4.167-4.167-10.917-4.167-15.083,0c-4.167,4.167-4.167,10.917,0,15.083
		l10.667,10.667c2.083,2.083,4.813,3.125,7.542,3.125s5.458-1.042,7.542-3.125c4.167-4.167,4.167-10.917,0-15.083L167.542,269.792z"
		/>
	<path style="fill:#FFFFFF;" d="M216.458,237.792l-10.667,10.667c-4.167,4.167-4.167,10.917,0,15.083
		c2.083,2.083,4.813,3.125,7.542,3.125c2.729,0,5.458-1.042,7.542-3.125l10.667-10.667c4.167-4.167,4.167-10.917,0-15.083
		S220.625,233.625,216.458,237.792z"/>
</g>
<linearGradient id="SVGID_1_" gradientUnits="userSpaceOnUse" x1="-44.2847" y1="638.704" x2="-23.9269" y2="629.2111" gradientTransform="matrix(21.3333 0 0 -21.3333 996.3334 13791.667)">
	<stop  offset="0" style="stop-color:#FFFFFF;stop-opacity:0.2"/>
	<stop  offset="1" style="stop-color:#FFFFFF;stop-opacity:0"/>
</linearGradient>
<path style="fill:url(#SVGID_1_);" d="M512,266.667c0-13.888-8.944-25.617-21.333-30.035v-1.965
	c0-67.766-44.888-125.635-109.673-143.458c-3.31-8.458-9.199-15.578-16.75-20.417c4.211-15.43,17.365-49.458,51.757-49.458
	c5.896,0,10.667-4.771,10.667-10.667S421.896,0,416,0c-43.267,0-64.706,37.555-72.167,64.253c-0.844-0.049-1.645-0.253-2.5-0.253
	c-17.997,0-33.353,11.241-39.609,27.044c-41.781,11.475-76.068,40.087-94.747,78.846c-7.503-12.273-20.906-20.557-36.31-20.557
	c-0.855,0-1.656,0.203-2.5,0.253c-7.461-26.698-28.9-64.253-72.167-64.253c-5.896,0-10.667,4.771-10.667,10.667
	c0,5.896,4.771,10.667,10.667,10.667c34.392,0,47.546,34.029,51.757,49.458c-7.551,4.839-13.44,11.958-16.75,20.417
	C66.221,194.365,21.333,252.234,21.333,320v1.965C8.944,326.383,0,338.112,0,352c0,14.393,9.611,26.453,22.708,30.462l15.646,93.892
	C41.813,497.01,59.521,512,80.438,512h180.458c20.917,0,38.625-14.99,42.083-35.656l8.279-49.677h120.305
	c20.958,0,38.646-15,42.083-35.656l15.646-93.882C502.389,293.12,512,281.06,512,266.667z"/>
<g>
</g>
<g>
</g>
<g>
</g>
<g>
</g>
<g>
</g>
<g>
</g>
<g>
</g>
<g>
</g>
<g>
</g>
<g>
</g>
<g>
</g>
<g>
</g>
<g>
</g>
<g>
</g>
<g>
</g>
</svg>
