<?xml version="1.0" encoding="iso-8859-1"?>
<!-- Generator: Adobe Illustrator 19.0.0, SVG Export Plug-In . SVG Version: 6.00 Build 0)  -->
<svg version="1.1" id="Capa_1" xmlns="http://www.w3.org/2000/svg" xmlns:xlink="http://www.w3.org/1999/xlink" x="0px" y="0px"
	 viewBox="0 0 512 512" opacity="0.1" style="enable-background:new 0 0 512 512;" xml:space="preserve">
<path style="fill:#303C42;" d="M501.333,384H378.065c3.674-6.301,5.935-13.527,5.935-21.333v-44.632
	c12.389-4.418,21.333-16.147,21.333-30.035c0-14.052-9.163-25.884-21.781-30.174c-4.551-60.572-55.181-108.492-116.885-108.492
	v-23.298C279.056,121.617,288,109.888,288,96c0-17.646-14.354-32-32-32s-32,14.354-32,32c0,13.888,8.944,25.617,21.333,30.035
	v23.298c-61.704,0-112.335,47.921-116.885,108.492c-12.618,4.29-21.781,16.122-21.781,30.174c0,13.888,8.944,25.617,21.333,30.035
	v44.632c0,7.806,2.26,15.033,5.935,21.333H10.667C4.771,384,0,388.771,0,394.667C0,424.073,23.917,448,53.333,448h405.333
	C488.083,448,512,424.073,512,394.667C512,388.771,507.229,384,501.333,384z"/>
<circle style="fill:#FFCA28;" cx="256" cy="96" r="10.667"/>
<path style="fill:#FDCA8C;" d="M245.333,170.667v10.667c0,5.896,4.771,10.667,10.667,10.667c5.896,0,10.667-4.771,10.667-10.667
	v-10.667c49.333,0,90.083,37.396,95.417,85.333H149.917C155.25,208.063,196,170.667,245.333,170.667z"/>
<path style="opacity:0.2;fill:#FFFFFF;enable-background:new    ;" d="M245.333,171.09v-0.423
	c-49.333,0-90.083,37.396-95.417,85.333h31.417C184.97,209.553,212.073,173.318,245.333,171.09z"/>
<path style="opacity:0.1;enable-background:new    ;" d="M266.667,170.667v0.423c33.26,2.228,60.363,38.464,64,84.91h31.417
	C356.75,208.063,316,170.667,266.667,170.667z"/>
<path style="fill:#FFCA28;" d="M138.667,277.333h234.667c5.875,0,10.667,4.781,10.667,10.667c0,5.885-4.792,10.667-10.667,10.667
	h-42.667c-22.646,0-43.063,23.281-53.438,37.521c-17.396-13.219-57.521-37.521-117.229-37.521h-21.333
	c-5.875,0-10.667-4.781-10.667-10.667C128,282.115,132.792,277.333,138.667,277.333z"/>
<path style="opacity:0.1;enable-background:new    ;" d="M373.333,288h-42.667c-17.345,0-33.383,13.658-44.603,26.451
	c-5.285,6.026-14.025,7.068-20.816,2.811C244.302,304.135,208.652,288,160,288h-21.333c-3.893,0-7.164-2.203-9.026-5.333
	C128.693,284.259,128,286.016,128,288c0,5.885,4.792,10.667,10.667,10.667H160c59.708,0,99.833,24.302,117.229,37.521
	c10.375-14.24,30.792-37.521,53.438-37.521h42.667c5.875,0,10.667-4.781,10.667-10.667c0-1.984-0.691-3.741-1.639-5.333
	C380.499,285.797,377.227,288,373.333,288z"/>
<path style="fill:#FDCA8C;" d="M149.333,362.667V320H160c71.063,0,111.542,39.167,111.938,39.563
	c2.021,1.99,4.729,3.094,7.521,3.094c0.438,0,0.875-0.031,1.333-0.083c3.229-0.417,6.125-2.281,7.813-5.083
	c7.333-12.229,27.271-37.49,42.063-37.49h32v42.667c0,11.76-9.563,21.333-21.333,21.333H170.667
	C158.896,384,149.333,374.427,149.333,362.667z"/>
<path style="opacity:0.1;enable-background:new    ;" d="M341.333,320v42.667c0,11.76-7.65,21.333-17.066,21.333h17.066
	c11.771,0,21.333-9.573,21.333-21.333V320H341.333z"/>
<path style="opacity:0.2;fill:#FFFFFF;enable-background:new    ;" d="M170.667,362.667v-41.954C167.079,320.504,163.76,320,160,320
	h-10.667v42.667c0,11.76,9.563,21.333,21.333,21.333h17.066C178.316,384,170.667,374.427,170.667,362.667z"/>
<path style="fill:#FAFAFA;" d="M458.667,426.667H53.333c-13.917,0-25.771-8.917-30.167-21.333h465.667
	C484.438,417.75,472.583,426.667,458.667,426.667z"/>
<path style="opacity:0.1;enable-background:new    ;" d="M469.581,405.333C463.729,411.75,455.525,416,446.167,416H40.833
	c-5.033,0-9.607-1.487-13.845-3.563c5.751,8.509,15.313,14.229,26.345,14.229h405.333c13.917,0,25.771-8.917,30.167-21.333H469.581z
	"/>
<linearGradient id="SVGID_1_" gradientUnits="userSpaceOnUse" x1="-42.9811" y1="636.0778" x2="-23.0127" y2="626.7665" gradientTransform="matrix(21.3333 0 0 -21.3333 996.3334 13791.667)">
	<stop  offset="0" style="stop-color:#FFFFFF;stop-opacity:0.2"/>
	<stop  offset="1" style="stop-color:#FFFFFF;stop-opacity:0"/>
</linearGradient>
<path style="fill:url(#SVGID_1_);" d="M501.333,384H378.065c3.674-6.301,5.935-13.527,5.935-21.333v-44.632
	c12.389-4.418,21.333-16.147,21.333-30.035c0-14.052-9.163-25.884-21.781-30.174c-4.551-60.572-55.181-108.492-116.885-108.492
	v-23.298C279.056,121.617,288,109.888,288,96c0-17.646-14.354-32-32-32s-32,14.354-32,32c0,13.888,8.944,25.617,21.333,30.035
	v23.298c-61.704,0-112.335,47.921-116.885,108.492c-12.618,4.29-21.781,16.122-21.781,30.174c0,13.888,8.944,25.617,21.333,30.035
	v44.632c0,7.806,2.26,15.033,5.935,21.333H10.667C4.771,384,0,388.771,0,394.667C0,424.073,23.917,448,53.333,448h405.333
	C488.083,448,512,424.073,512,394.667C512,388.771,507.229,384,501.333,384z"/>
<g>
</g>
<g>
</g>
<g>
</g>
<g>
</g>
<g>
</g>
<g>
</g>
<g>
</g>
<g>
</g>
<g>
</g>
<g>
</g>
<g>
</g>
<g>
</g>
<g>
</g>
<g>
</g>
<g>
</g>
</svg>
