<?xml version="1.0" encoding="iso-8859-1"?>
<!-- Generator: Adobe Illustrator 19.0.0, SVG Export Plug-In . SVG Version: 6.00 Build 0)  -->
<svg version="1.1" id="Capa_1" xmlns="http://www.w3.org/2000/svg" xmlns:xlink="http://www.w3.org/1999/xlink" x="0px" y="0px"
	 viewBox="0 0 469.333 469.333" opacity="0.2" style="enable-background:new 0 0 469.333 469.333;" xml:space="preserve">
<g>
	<path style="fill:#303C42;" d="M469.333,74.667C469.333,33.5,435.833,0,394.667,0c-32.944,0-60.656,21.598-70.542,51.266
		c-6.473-4.773-14.91-8.599-25.458-8.599c-10.548,0-18.986,3.826-25.458,8.599C263.323,21.598,235.611,0,202.667,0
		C161.5,0,128,33.5,128,74.667s33.5,74.667,74.667,74.667c39.97,0,72.443-31.656,74.313-71.171
		C279.255,74.492,286.773,64,298.667,64c11.921,0,19.447,10.543,21.686,14.154c1.865,39.52,34.341,71.18,74.314,71.18
		c11.495,0,22.263-2.828,32-7.49v231.49c0,5.896,4.771,10.667,10.667,10.667S448,379.229,448,373.333V126.757
		C461.155,113.289,469.333,94.932,469.333,74.667z M202.667,128c-29.406,0-53.333-23.927-53.333-53.333s23.927-53.333,53.333-53.333
		S256,45.26,256,74.667S232.073,128,202.667,128z M341.333,74.667c0-29.406,23.927-53.333,53.333-53.333S448,45.26,448,74.667
		S424.073,128,394.667,128S341.333,104.073,341.333,74.667z"/>
	<path style="fill:#303C42;" d="M333.24,171.063c-4.76-1.167-9.729,1.063-12.042,5.365C320.854,177.063,312.521,192,288,192
		c-13.479,0-22.323-4.417-32.563-9.542c-11.052-5.531-23.583-11.792-42.104-11.792c-20.799,0-34.358,7.803-42.667,18.882
		c-8.309-11.078-21.867-18.882-42.667-18.882c-18.521,0-31.052,6.26-42.104,11.792C75.656,187.583,66.813,192,53.333,192
		c-24.521,0-32.854-14.938-33.125-15.438c-2.219-4.427-7.219-6.75-11.99-5.615C3.406,172.083,0,176.385,0,181.333
		c0,0.538,0.436,30.729,21.333,57.109v220.224c0,5.896,4.771,10.667,10.667,10.667s10.667-4.771,10.667-10.667V257.766
		c17.126,11.422,40.94,19.568,74.667,19.568c24.142,0,42.569-10.378,53.333-24.259c10.764,13.882,29.191,24.259,53.333,24.259
		c115.99,0,117.333-95.042,117.333-96C341.333,176.448,337.979,172.26,333.24,171.063z"/>
</g>
<g>
	<path style="fill:#545850;" d="M117.333,256c-56.708,0-79.917-25.927-89.417-47.24c6.875,2.729,15.271,4.573,25.417,4.573
		c18.521,0,31.052-6.26,42.104-11.792C105.677,196.417,114.521,192,128,192c26.448,0,32,17.406,32,32
		C160,239.385,143.688,256,117.333,256z"/>
	<path style="fill:#545850;" d="M224,256c-26.354,0-42.667-16.615-42.667-32c0-14.594,5.552-32,32-32
		c13.479,0,22.323,4.417,32.563,9.542c11.052,5.531,23.583,11.792,42.104,11.792c10.26,0,18.74-1.885,25.667-4.677
		C304.313,230,281.188,256,224,256z"/>
</g>
<g>
	<path style="opacity:0.2;fill:#FFFFFF;enable-background:new    ;" d="M53.333,230.667c18.521,0,31.052-6.26,42.104-11.792
		c10.24-5.125,19.083-9.542,32.563-9.542c20.233,0,28.193,10.195,30.837,21.516C159.534,228.573,160,226.28,160,224
		c0-14.594-5.552-32-32-32c-13.479,0-22.323,4.417-32.563,9.542c-11.052,5.531-23.583,11.792-42.104,11.792
		c-10.146,0-18.542-1.844-25.417-4.573c3.052,6.846,7.747,14.111,14.284,20.897C45.71,230.185,49.281,230.667,53.333,230.667z"/>
	<path style="opacity:0.2;fill:#FFFFFF;enable-background:new    ;" d="M213.333,209.333c13.479,0,22.323,4.417,32.563,9.542
		c11.052,5.531,23.583,11.792,42.104,11.792c4.176,0,7.862-0.492,11.464-1.051c6.531-6.807,11.195-14.096,14.203-20.96
		c-6.927,2.792-15.406,4.677-25.667,4.677c-18.521,0-31.052-6.26-42.104-11.792c-10.24-5.125-19.083-9.542-32.563-9.542
		c-26.448,0-32,17.406-32,32c0,2.28,0.466,4.573,1.163,6.849C185.141,219.529,193.1,209.333,213.333,209.333z"/>
</g>
<linearGradient id="SVGID_1_" gradientUnits="userSpaceOnUse" x1="-66.1911" y1="617.5748" x2="-45.4096" y2="607.884" gradientTransform="matrix(21.3333 0 0 -21.3333 1430.1112 13315.2227)">
	<stop  offset="0" style="stop-color:#FFFFFF;stop-opacity:0.2"/>
	<stop  offset="1" style="stop-color:#FFFFFF;stop-opacity:0"/>
</linearGradient>
<path style="fill:url(#SVGID_1_);" d="M394.667,0c-32.944,0-60.656,21.598-70.542,51.266c-6.473-4.773-14.91-8.599-25.458-8.599
	c-10.548,0-18.986,3.826-25.458,8.599C263.323,21.598,235.611,0,202.667,0C161.5,0,128,33.5,128,74.667s33.5,74.667,74.667,74.667
	c39.97,0,72.443-31.656,74.313-71.171C279.255,74.492,286.773,64,298.667,64c11.921,0,19.447,10.543,21.686,14.154
	c1.865,39.52,34.341,71.18,74.314,71.18c11.495,0,22.263-2.828,32-7.49v231.49c0,5.896,4.771,10.667,10.667,10.667
	S448,379.229,448,373.333V126.757c13.155-13.467,21.333-31.824,21.333-52.09C469.333,33.5,435.833,0,394.667,0z M202.667,128
	c-29.406,0-53.333-23.927-53.333-53.333s23.927-53.333,53.333-53.333S256,45.26,256,74.667S232.073,128,202.667,128z M394.667,128
	c-29.406,0-53.333-23.927-53.333-53.333s23.927-53.333,53.333-53.333S448,45.26,448,74.667S424.073,128,394.667,128z
	 M333.24,171.063c-4.76-1.167-9.729,1.063-12.042,5.365C320.854,177.063,312.521,192,288,192c-13.479,0-22.323-4.417-32.563-9.542
	c-11.052-5.531-23.583-11.792-42.104-11.792c-20.799,0-34.358,7.803-42.667,18.882c-8.309-11.078-21.867-18.882-42.667-18.882
	c-18.521,0-31.052,6.26-42.104,11.792C75.656,187.583,66.813,192,53.333,192c-24.521,0-32.854-14.938-33.125-15.438
	c-2.219-4.427-7.219-6.75-11.99-5.615C3.406,172.083,0,176.385,0,181.333c0,0.538,0.436,30.729,21.333,57.109v220.224
	c0,5.896,4.771,10.667,10.667,10.667s10.667-4.771,10.667-10.667V257.766c17.126,11.422,40.94,19.568,74.667,19.568
	c24.142,0,42.569-10.378,53.333-24.259c10.764,13.882,29.191,24.259,53.333,24.259c115.99,0,117.333-95.042,117.333-96
	C341.333,176.448,337.979,172.26,333.24,171.063z"/>
<g>
</g>
<g>
</g>
<g>
</g>
<g>
</g>
<g>
</g>
<g>
</g>
<g>
</g>
<g>
</g>
<g>
</g>
<g>
</g>
<g>
</g>
<g>
</g>
<g>
</g>
<g>
</g>
<g>
</g>
</svg>
