<?xml version="1.0" encoding="iso-8859-1"?>
<!-- Generator: Adobe Illustrator 19.0.0, SVG Export Plug-In . SVG Version: 6.00 Build 0)  -->
<svg version="1.1" id="Capa_1" xmlns="http://www.w3.org/2000/svg" xmlns:xlink="http://www.w3.org/1999/xlink" x="0px" y="0px"
	 viewBox="0 0 512 512" opacity="0.1" style="enable-background:new 0 0 512 512;" xml:space="preserve">
<path style="fill:#303C42;" d="M423.736,449.053L280.749,77.289c10.806-7.747,17.918-20.339,17.918-34.622
	C298.667,19.135,279.531,0,256,0s-42.667,19.135-42.667,42.667c0,14.284,7.112,26.875,17.918,34.622L88.264,449.053
	C74.365,452.535,64,465.035,64,480c0,17.646,14.354,32,32,32h320c17.646,0,32-14.354,32-32
	C448,465.035,437.635,452.535,423.736,449.053z"/>
<polygon style="fill:#FFE082;" points="334.826,277.333 177.174,277.333 209.996,192 302.004,192 "/>
<polygon style="fill:#0288D1;" points="343.031,298.667 375.853,384 136.147,384 168.969,298.667 "/>
<circle style="fill:#FFE082;" cx="256" cy="42.667" r="21.333"/>
<path style="opacity:0.1;enable-background:new    ;" d="M266.082,24.22c-1.469,10.339-10.012,18.447-20.749,18.447
	c-3.715,0-7.036-1.208-10.082-2.887c-0.141,0.986-0.585,1.863-0.585,2.887C234.667,54.427,244.24,64,256,64
	c11.76,0,21.333-9.573,21.333-21.333C277.333,34.621,272.678,27.853,266.082,24.22z"/>
<path style="fill:#0288D1;" d="M256,85.333c1.641,0,3.199-0.303,4.792-0.484l33.008,85.818h-75.599l33.008-85.818
	C252.801,85.03,254.359,85.333,256,85.333z"/>
<polygon style="fill:#FFE082;" points="127.941,405.333 384.059,405.333 400.469,448 111.531,448 "/>
<polygon style="opacity:0.1;enable-background:new    ;" points="334.826,277.333 302.004,192 286.57,192 308.38,277.333 "/>
<g>
	<polygon style="opacity:0.2;fill:#FFFFFF;enable-background:new    ;" points="225.43,192 209.996,192 177.174,277.333
		203.62,277.333 	"/>
	<polygon style="opacity:0.2;fill:#FFFFFF;enable-background:new    ;" points="198.168,298.667 168.969,298.667 136.147,384
		176.357,384 	"/>
</g>
<polygon style="opacity:0.1;enable-background:new    ;" points="375.853,384 343.031,298.667 313.832,298.667 335.643,384 "/>
<path style="opacity:0.2;fill:#FFFFFF;enable-background:new    ;" d="M252.776,85.008c-0.518-0.07-1.047-0.1-1.568-0.159
	l-33.008,85.818h12.681L252.776,85.008z"/>
<path style="opacity:0.1;enable-background:new    ;" d="M293.799,170.667l-33.008-85.818c-0.521,0.059-1.049,0.089-1.568,0.159
	l21.895,85.659H293.799z"/>
<polygon style="opacity:0.1;enable-background:new    ;" points="384.059,405.333 341.095,405.333 352,448 400.469,448 "/>
<polygon style="opacity:0.2;fill:#FFFFFF;enable-background:new    ;" points="127.941,405.333 111.531,448 160,448
	170.905,405.333 "/>
<path style="fill:#0288D1;" d="M416,490.667H96c-5.885,0-10.667-4.781-10.667-10.667c0-5.885,4.781-10.667,10.667-10.667h320
	c5.885,0,10.667,4.781,10.667,10.667C426.667,485.885,421.885,490.667,416,490.667z"/>
<path style="opacity:0.2;fill:#FFFFFF;enable-background:new    ;" d="M106.667,480c0-5.885,4.184-10.667,9.333-10.667H96
	c-5.885,0-10.667,4.781-10.667,10.667c0,5.885,4.781,10.667,10.667,10.667h20C110.85,490.667,106.667,485.885,106.667,480z"/>
<path style="opacity:0.1;enable-background:new    ;" d="M416,469.333h-20c5.15,0,9.333,4.781,9.333,10.667
	c0,5.885-4.184,10.667-9.333,10.667h20c5.885,0,10.667-4.781,10.667-10.667C426.667,474.115,421.885,469.333,416,469.333z"/>
<linearGradient id="SVGID_1_" gradientUnits="userSpaceOnUse" x1="-41.0056" y1="635.7004" x2="-23.8213" y2="627.6877" gradientTransform="matrix(21.3333 0 0 -21.3333 996.3334 13791.667)">
	<stop  offset="0" style="stop-color:#FFFFFF;stop-opacity:0.2"/>
	<stop  offset="1" style="stop-color:#FFFFFF;stop-opacity:0"/>
</linearGradient>
<path style="fill:url(#SVGID_1_);" d="M423.736,449.053L280.749,77.289c10.806-7.747,17.918-20.339,17.918-34.622
	C298.667,19.135,279.531,0,256,0s-42.667,19.135-42.667,42.667c0,14.284,7.112,26.875,17.918,34.622L88.264,449.053
	C74.365,452.535,64,465.035,64,480c0,17.646,14.354,32,32,32h320c17.646,0,32-14.354,32-32
	C448,465.035,437.635,452.535,423.736,449.053z"/>
<g>
</g>
<g>
</g>
<g>
</g>
<g>
</g>
<g>
</g>
<g>
</g>
<g>
</g>
<g>
</g>
<g>
</g>
<g>
</g>
<g>
</g>
<g>
</g>
<g>
</g>
<g>
</g>
<g>
</g>
</svg>
