<?xml version="1.0" encoding="iso-8859-1"?>
<!-- Generator: Adobe Illustrator 19.0.0, SVG Export Plug-In . SVG Version: 6.00 Build 0)  -->
<svg version="1.1" id="Capa_1" xmlns="http://www.w3.org/2000/svg" xmlns:xlink="http://www.w3.org/1999/xlink" x="0px" y="0px"
	 viewBox="0 0 512 512" opacity="0.1" style="enable-background:new 0 0 512 512;" xml:space="preserve">
<path style="fill:#303C42;" d="M512,256.006c0-26.426-4.094-52.634-12.167-77.915c-1.406-4.417-5.51-7.416-10.156-7.416h-82.118
	L448.25,57.251c2.021-5.594,6.073-10.052,11.406-12.541c5.25-2.479,11.135-2.708,16.583-0.698
	c11.365,4.177,17.24,16.958,13.094,28.478c-2,5.542,0.875,11.656,6.417,13.645c5.5,2.042,11.656-0.865,13.646-6.416
	c8.115-22.51-3.458-47.509-25.802-55.728c-10.781-3.979-22.51-3.469-32.948,1.385c-10.521,4.906-18.5,13.656-22.469,24.656
	l-43.284,120.643H22.323c-4.646,0-8.75,3-10.156,7.416C4.094,203.372,0,229.579,0,256.006c0,91.983,49.717,176.275,128.477,221.627
	C128.293,478.416,128,479.16,128,480c0,5.896,4.771,10.666,10.667,10.666h17.315c0.036,0.001,0.069,0,0.105,0h217.246
	c5.896,0,10.667-4.771,10.667-10.666c0-0.84-0.293-1.583-0.477-2.367C462.283,432.281,512,347.989,512,256.006z"/>
<g>
	<path style="fill:#DDEEFD;" d="M481.75,192c3.974,14.016,6.129,28.362,7.447,42.799c-51.609,0.639-81.01,5.234-108.217,9.956
		L399.905,192H481.75z"/>
	<path style="fill:#DDEEFD;" d="M377.24,192l-20.389,56.832C331.827,252.819,303.59,256,256,256
		c-60.406,0-89.708-5.104-120.719-10.51c-28.473-4.962-58.185-10.018-112.478-10.69c1.318-14.438,3.473-28.784,7.447-42.799H377.24z
		"/>
</g>
<path style="fill:#EF373E;" d="M353.306,469.333H158.694C75.233,431.21,21.382,347.793,21.337,256.113
	c53.23,0.572,81.171,5.323,110.277,10.397c30.542,5.323,62.125,10.823,124.385,10.823c41.743,0,69.582-2.491,92.678-5.724
	l-24.397,68l-106.979-40.255c-2.698-1.021-5.677-0.906-8.271,0.313c-2.594,1.208-4.594,3.417-5.552,6.125l-7.104,20.177
	c-13.667,38.823,5.875,81.938,43.552,96.104c8.177,3.083,16.656,4.615,25.115,4.615c10.25,0,20.479-2.25,30.073-6.729
	c18.073-8.417,31.75-23.625,38.51-42.823l7.081-20.122l0.003-0.003l31.991-89.174c2.57-0.441,5.148-0.883,7.686-1.326
	c29.107-5.074,57.047-9.826,110.277-10.397C490.618,347.793,436.767,431.21,353.306,469.333z"/>
<linearGradient id="SVGID_1_" gradientUnits="userSpaceOnUse" x1="-45.0773" y1="635.8207" x2="-26.0798" y2="626.9614" gradientTransform="matrix(21.3333 0 0 -21.3333 996.3334 13791.667)">
	<stop  offset="0" style="stop-color:#FFFFFF;stop-opacity:0.2"/>
	<stop  offset="1" style="stop-color:#FFFFFF;stop-opacity:0"/>
</linearGradient>
<path style="fill:url(#SVGID_1_);" d="M353.306,469.333H158.694C75.233,431.21,21.382,347.793,21.337,256.113
	c53.23,0.572,81.171,5.323,110.277,10.397c30.542,5.323,62.125,10.823,124.385,10.823c41.743,0,69.582-2.491,92.678-5.724
	l-24.397,68l-106.979-40.255c-2.698-1.021-5.677-0.906-8.271,0.313c-2.594,1.208-4.594,3.417-5.552,6.125l-7.104,20.177
	c-13.667,38.823,5.875,81.938,43.552,96.104c8.177,3.083,16.656,4.615,25.115,4.615c10.25,0,20.479-2.25,30.073-6.729
	c18.073-8.417,31.75-23.625,38.51-42.823l7.081-20.122l0.003-0.003l31.991-89.174c2.57-0.441,5.148-0.883,7.686-1.326
	c29.107-5.074,57.047-9.826,110.277-10.397C490.618,347.793,436.767,431.21,353.306,469.333z"/>
<path style="opacity:0.1;enable-background:new    ;" d="M468.941,235.303c6.387-0.233,13.06-0.415,20.255-0.504
	c-1.318-14.438-3.473-28.784-7.447-42.799h-11.807C470.135,205.98,469.431,222.818,468.941,235.303z"/>
<path style="opacity:0.1;enable-background:new    ;" d="M466.751,256.743c-3.354,23.628-10.008,46.436-20.07,67.586
	c-33.607,70.642-107.778,113.004-186.007,113.004l-98.174,0c-17.917,0-35.758-4.406-50.99-13.84
	c-23.702-14.678-44.301-33.32-61.169-54.77c23.906,43.458,61.452,79.186,108.353,100.609h194.612
	c83.461-38.124,137.313-121.54,137.357-213.22C481.992,256.207,474.194,256.445,466.751,256.743z"/>
<path style="fill:#DFE1DF;" d="M317.135,359.708l-3.635,10.344c-4.833,13.74-14.563,24.594-27.396,30.573
	c-12.271,5.719-25.99,6.26-38.656,1.49c-26.906-10.125-40.792-41.104-30.948-69.063l3.479-9.896L317.135,359.708z"/>
<linearGradient id="SVGID_2_" gradientUnits="userSpaceOnUse" x1="-36.9083" y1="630.2283" x2="-32.454" y2="628.1512" gradientTransform="matrix(21.3333 0 0 -21.3333 996.3334 13791.667)">
	<stop  offset="0" style="stop-color:#FFFFFF;stop-opacity:0.2"/>
	<stop  offset="1" style="stop-color:#FFFFFF;stop-opacity:0"/>
</linearGradient>
<path style="fill:url(#SVGID_2_);" d="M317.135,359.708l-3.635,10.344c-4.833,13.74-14.563,24.594-27.396,30.573
	c-12.271,5.719-25.99,6.26-38.656,1.49c-26.906-10.125-40.792-41.104-30.948-69.063l3.479-9.896L317.135,359.708z"/>
<path style="opacity:0.1;enable-background:new    ;" d="M305.382,355.286c-5.259,11.507-13.949,20.728-25.277,26.005
	c-12.271,5.719-25.99,6.26-38.656,1.49c-12.284-4.622-21.665-13.701-27.503-24.745c2.309,19.457,14.57,36.954,33.503,44.078
	c12.667,4.771,26.385,4.229,38.656-1.49c12.833-5.979,22.563-16.833,27.396-30.573l3.635-10.344L305.382,355.286z"/>
<linearGradient id="SVGID_3_" gradientUnits="userSpaceOnUse" x1="-45.0648" y1="640.4365" x2="-23.4044" y2="630.3367" gradientTransform="matrix(21.3333 0 0 -21.3333 996.3334 13791.667)">
	<stop  offset="0" style="stop-color:#FFFFFF;stop-opacity:0.2"/>
	<stop  offset="1" style="stop-color:#FFFFFF;stop-opacity:0"/>
</linearGradient>
<path style="fill:url(#SVGID_3_);" d="M512,256.006c0-26.426-4.094-52.634-12.167-77.915c-1.406-4.417-5.51-7.416-10.156-7.416
	h-82.118L448.25,57.251c2.021-5.594,6.073-10.052,11.406-12.541c5.25-2.479,11.135-2.708,16.583-0.698
	c11.365,4.177,17.24,16.958,13.094,28.478c-2,5.542,0.875,11.656,6.417,13.645c5.5,2.042,11.656-0.865,13.646-6.416
	c8.115-22.51-3.458-47.509-25.802-55.728c-10.781-3.979-22.51-3.469-32.948,1.385c-10.521,4.906-18.5,13.656-22.469,24.656
	l-43.284,120.643H22.323c-4.646,0-8.75,3-10.156,7.416C4.094,203.372,0,229.579,0,256.006c0,91.983,49.717,176.275,128.477,221.627
	C128.293,478.416,128,479.16,128,480c0,5.896,4.771,10.666,10.667,10.666h17.315c0.036,0.001,0.069,0,0.105,0h217.246
	c5.896,0,10.667-4.771,10.667-10.666c0-0.84-0.293-1.583-0.477-2.367C462.283,432.281,512,347.989,512,256.006z"/>
<g>
</g>
<g>
</g>
<g>
</g>
<g>
</g>
<g>
</g>
<g>
</g>
<g>
</g>
<g>
</g>
<g>
</g>
<g>
</g>
<g>
</g>
<g>
</g>
<g>
</g>
<g>
</g>
<g>
</g>
</svg>
